<mxfile host="app.diagrams.net" modified="2021-06-30T06:15:54.552Z" agent="5.0 (Windows NT 10.0; Win64; x64) AppleWebKit/537.36 (KHTML, like Gecko) Chrome/91.0.4472.114 Safari/537.36 Edg/91.0.864.59" etag="JqdPEUgrjSowuCHFHhR_" version="14.7.3" type="github">
  <diagram id="DDJMke-t-uRiKdPp6NES" name="Page-1">
    <mxGraphModel dx="1512" dy="816" grid="1" gridSize="10" guides="1" tooltips="1" connect="1" arrows="0" fold="1" page="0" pageScale="1" pageWidth="827" pageHeight="1169" math="0" shadow="0">
      <root>
        <mxCell id="0" />
        <mxCell id="1" parent="0" />
        <mxCell id="MFbKQ4KdCUcgv2iNRWdX-8" value="&lt;span style=&quot;font-size: 10.5pt&quot;&gt;航空公司&lt;/span&gt;&lt;span lang=&quot;EN-US&quot; style=&quot;font-size: 10.5pt ; font-family: &amp;#34;times new roman&amp;#34; , serif&quot;&gt;(airlineCompany&lt;/span&gt;)" style="rounded=0;whiteSpace=wrap;html=1;" vertex="1" parent="1">
          <mxGeometry x="90" y="280" width="120" height="60" as="geometry" />
        </mxCell>
        <mxCell id="MFbKQ4KdCUcgv2iNRWdX-9" value="&lt;span style=&quot;font-size: 10.5pt&quot;&gt;飞机&lt;br&gt;&lt;/span&gt;&lt;span lang=&quot;EN-US&quot; style=&quot;font-size: 10.5pt ; font-family: &amp;#34;times new roman&amp;#34; , serif&quot;&gt;(airplane)&lt;/span&gt;" style="rounded=0;whiteSpace=wrap;html=1;" vertex="1" parent="1">
          <mxGeometry x="490" y="270" width="120" height="60" as="geometry" />
        </mxCell>
        <mxCell id="MFbKQ4KdCUcgv2iNRWdX-10" value="&lt;span style=&quot;font-size: 10.5pt&quot;&gt;航线&lt;br&gt;&lt;/span&gt;&lt;span lang=&quot;EN-US&quot; style=&quot;font-size: 10.5pt ; font-family: &amp;#34;times new roman&amp;#34; , serif&quot;&gt;(airline)&lt;/span&gt;" style="whiteSpace=wrap;html=1;" vertex="1" parent="1">
          <mxGeometry x="490" y="470" width="120" height="60" as="geometry" />
        </mxCell>
        <mxCell id="MFbKQ4KdCUcgv2iNRWdX-11" value="&lt;span style=&quot;font-size: 10.5pt&quot;&gt;航班&lt;br&gt;&lt;/span&gt;&lt;span lang=&quot;EN-US&quot; style=&quot;font-size: 10.5pt ; font-family: &amp;#34;times new roman&amp;#34; , serif&quot;&gt;(airflight)&lt;/span&gt;" style="whiteSpace=wrap;html=1;" vertex="1" parent="1">
          <mxGeometry x="90" y="470" width="120" height="60" as="geometry" />
        </mxCell>
        <mxCell id="MFbKQ4KdCUcgv2iNRWdX-12" value="拥有" style="rhombus;whiteSpace=wrap;html=1;" vertex="1" parent="1">
          <mxGeometry x="280" y="270" width="140" height="80" as="geometry" />
        </mxCell>
        <mxCell id="MFbKQ4KdCUcgv2iNRWdX-14" value="" style="endArrow=none;html=1;entryX=0;entryY=0.5;entryDx=0;entryDy=0;exitX=1;exitY=0.5;exitDx=0;exitDy=0;" edge="1" parent="1" source="MFbKQ4KdCUcgv2iNRWdX-8" target="MFbKQ4KdCUcgv2iNRWdX-12">
          <mxGeometry width="50" height="50" relative="1" as="geometry">
            <mxPoint x="270" y="620" as="sourcePoint" />
            <mxPoint x="320" y="570" as="targetPoint" />
            <Array as="points">
              <mxPoint x="250" y="310" />
            </Array>
          </mxGeometry>
        </mxCell>
        <mxCell id="MFbKQ4KdCUcgv2iNRWdX-15" value="" style="endArrow=none;html=1;entryX=0;entryY=0.5;entryDx=0;entryDy=0;exitX=1;exitY=0.5;exitDx=0;exitDy=0;" edge="1" parent="1" source="MFbKQ4KdCUcgv2iNRWdX-12" target="MFbKQ4KdCUcgv2iNRWdX-9">
          <mxGeometry width="50" height="50" relative="1" as="geometry">
            <mxPoint x="270" y="620" as="sourcePoint" />
            <mxPoint x="320" y="570" as="targetPoint" />
            <Array as="points">
              <mxPoint x="450" y="310" />
            </Array>
          </mxGeometry>
        </mxCell>
        <mxCell id="MFbKQ4KdCUcgv2iNRWdX-16" value="1" style="text;html=1;strokeColor=none;fillColor=none;align=center;verticalAlign=middle;whiteSpace=wrap;rounded=0;" vertex="1" parent="1">
          <mxGeometry x="210" y="280" width="40" height="20" as="geometry" />
        </mxCell>
        <mxCell id="MFbKQ4KdCUcgv2iNRWdX-18" value="m" style="text;html=1;strokeColor=none;fillColor=none;align=center;verticalAlign=middle;whiteSpace=wrap;rounded=0;" vertex="1" parent="1">
          <mxGeometry x="450" y="280" width="40" height="20" as="geometry" />
        </mxCell>
        <mxCell id="MFbKQ4KdCUcgv2iNRWdX-20" value="参与" style="rhombus;whiteSpace=wrap;html=1;" vertex="1" parent="1">
          <mxGeometry x="480" y="370" width="140" height="80" as="geometry" />
        </mxCell>
        <mxCell id="MFbKQ4KdCUcgv2iNRWdX-21" value="" style="endArrow=none;html=1;entryX=0.5;entryY=1;entryDx=0;entryDy=0;exitX=0.5;exitY=0;exitDx=0;exitDy=0;" edge="1" parent="1" source="MFbKQ4KdCUcgv2iNRWdX-20" target="MFbKQ4KdCUcgv2iNRWdX-9">
          <mxGeometry width="50" height="50" relative="1" as="geometry">
            <mxPoint x="260" y="620" as="sourcePoint" />
            <mxPoint x="310" y="570" as="targetPoint" />
            <Array as="points">
              <mxPoint x="550" y="350" />
            </Array>
          </mxGeometry>
        </mxCell>
        <mxCell id="MFbKQ4KdCUcgv2iNRWdX-22" value="" style="endArrow=none;html=1;exitX=0.5;exitY=1;exitDx=0;exitDy=0;entryX=0.5;entryY=0;entryDx=0;entryDy=0;" edge="1" parent="1" source="MFbKQ4KdCUcgv2iNRWdX-20" target="MFbKQ4KdCUcgv2iNRWdX-10">
          <mxGeometry width="50" height="50" relative="1" as="geometry">
            <mxPoint x="260" y="620" as="sourcePoint" />
            <mxPoint x="310" y="570" as="targetPoint" />
          </mxGeometry>
        </mxCell>
        <mxCell id="MFbKQ4KdCUcgv2iNRWdX-23" value="1" style="text;html=1;strokeColor=none;fillColor=none;align=center;verticalAlign=middle;whiteSpace=wrap;rounded=0;" vertex="1" parent="1">
          <mxGeometry x="570" y="350" width="40" height="20" as="geometry" />
        </mxCell>
        <mxCell id="MFbKQ4KdCUcgv2iNRWdX-24" value="n" style="text;html=1;strokeColor=none;fillColor=none;align=center;verticalAlign=middle;whiteSpace=wrap;rounded=0;" vertex="1" parent="1">
          <mxGeometry x="580" y="440" width="40" height="30" as="geometry" />
        </mxCell>
        <mxCell id="MFbKQ4KdCUcgv2iNRWdX-25" value="有" style="rhombus;whiteSpace=wrap;html=1;" vertex="1" parent="1">
          <mxGeometry x="280" y="460" width="140" height="80" as="geometry" />
        </mxCell>
        <mxCell id="MFbKQ4KdCUcgv2iNRWdX-26" value="" style="endArrow=none;html=1;exitX=1;exitY=0.5;exitDx=0;exitDy=0;" edge="1" parent="1" source="MFbKQ4KdCUcgv2iNRWdX-11" target="MFbKQ4KdCUcgv2iNRWdX-25">
          <mxGeometry width="50" height="50" relative="1" as="geometry">
            <mxPoint x="260" y="620" as="sourcePoint" />
            <mxPoint x="310" y="570" as="targetPoint" />
          </mxGeometry>
        </mxCell>
        <mxCell id="MFbKQ4KdCUcgv2iNRWdX-27" value="" style="endArrow=none;html=1;exitX=1;exitY=0.5;exitDx=0;exitDy=0;entryX=0;entryY=0.5;entryDx=0;entryDy=0;" edge="1" parent="1" source="MFbKQ4KdCUcgv2iNRWdX-25" target="MFbKQ4KdCUcgv2iNRWdX-10">
          <mxGeometry width="50" height="50" relative="1" as="geometry">
            <mxPoint x="260" y="620" as="sourcePoint" />
            <mxPoint x="310" y="570" as="targetPoint" />
          </mxGeometry>
        </mxCell>
        <mxCell id="MFbKQ4KdCUcgv2iNRWdX-28" value="m" style="text;html=1;strokeColor=none;fillColor=none;align=center;verticalAlign=middle;whiteSpace=wrap;rounded=0;" vertex="1" parent="1">
          <mxGeometry x="220" y="460" width="40" height="20" as="geometry" />
        </mxCell>
        <mxCell id="MFbKQ4KdCUcgv2iNRWdX-29" value="1" style="text;html=1;strokeColor=none;fillColor=none;align=center;verticalAlign=middle;whiteSpace=wrap;rounded=0;" vertex="1" parent="1">
          <mxGeometry x="420" y="470" width="40" height="20" as="geometry" />
        </mxCell>
        <mxCell id="MFbKQ4KdCUcgv2iNRWdX-30" value="&lt;b&gt;&lt;u&gt;&lt;span style=&quot;font-size: 10.5pt&quot;&gt;公司编号&lt;/span&gt;&lt;span lang=&quot;EN-US&quot; style=&quot;font-size: 10.5pt ; font-family: &amp;#34;times new roman&amp;#34; , serif&quot;&gt;(cID)&lt;/span&gt;&lt;/u&gt;&lt;/b&gt;" style="ellipse;whiteSpace=wrap;html=1;" vertex="1" parent="1">
          <mxGeometry y="190" width="100" height="60" as="geometry" />
        </mxCell>
        <mxCell id="MFbKQ4KdCUcgv2iNRWdX-31" value="&lt;span style=&quot;font-size: 10.5pt&quot;&gt;公司名&lt;/span&gt;&lt;span lang=&quot;EN-US&quot; style=&quot;font-size: 10.5pt ; font-family: &amp;#34;times new roman&amp;#34; , serif&quot;&gt;(cName)&lt;/span&gt;" style="ellipse;whiteSpace=wrap;html=1;" vertex="1" parent="1">
          <mxGeometry x="120" y="190" width="100" height="60" as="geometry" />
        </mxCell>
        <mxCell id="MFbKQ4KdCUcgv2iNRWdX-33" value="&lt;span style=&quot;font-size: 10.5pt&quot;&gt;公司电话&lt;/span&gt;&lt;span lang=&quot;EN-US&quot; style=&quot;font-size: 10.5pt ; font-family: &amp;#34;times new roman&amp;#34; , serif&quot;&gt;(cTele)&lt;/span&gt;" style="ellipse;whiteSpace=wrap;html=1;" vertex="1" parent="1">
          <mxGeometry x="230" y="190" width="100" height="60" as="geometry" />
        </mxCell>
        <mxCell id="MFbKQ4KdCUcgv2iNRWdX-38" value="" style="endArrow=none;html=1;strokeColor=#000000;exitX=0.5;exitY=1;exitDx=0;exitDy=0;entryX=0.25;entryY=0;entryDx=0;entryDy=0;" edge="1" parent="1" source="MFbKQ4KdCUcgv2iNRWdX-30" target="MFbKQ4KdCUcgv2iNRWdX-8">
          <mxGeometry width="50" height="50" relative="1" as="geometry">
            <mxPoint x="220" y="330" as="sourcePoint" />
            <mxPoint x="270" y="280" as="targetPoint" />
          </mxGeometry>
        </mxCell>
        <mxCell id="MFbKQ4KdCUcgv2iNRWdX-39" value="" style="endArrow=none;html=1;strokeColor=#000000;entryX=0.5;entryY=0;entryDx=0;entryDy=0;exitX=0.5;exitY=1;exitDx=0;exitDy=0;" edge="1" parent="1" source="MFbKQ4KdCUcgv2iNRWdX-31" target="MFbKQ4KdCUcgv2iNRWdX-8">
          <mxGeometry width="50" height="50" relative="1" as="geometry">
            <mxPoint x="220" y="330" as="sourcePoint" />
            <mxPoint x="270" y="280" as="targetPoint" />
          </mxGeometry>
        </mxCell>
        <mxCell id="MFbKQ4KdCUcgv2iNRWdX-40" value="" style="endArrow=none;html=1;strokeColor=#000000;entryX=0.5;entryY=1;entryDx=0;entryDy=0;exitX=0.75;exitY=0;exitDx=0;exitDy=0;" edge="1" parent="1" source="MFbKQ4KdCUcgv2iNRWdX-8" target="MFbKQ4KdCUcgv2iNRWdX-33">
          <mxGeometry width="50" height="50" relative="1" as="geometry">
            <mxPoint x="220" y="330" as="sourcePoint" />
            <mxPoint x="270" y="280" as="targetPoint" />
          </mxGeometry>
        </mxCell>
        <mxCell id="MFbKQ4KdCUcgv2iNRWdX-42" value="&lt;b&gt;&lt;u&gt;&lt;span style=&quot;font-size: 10.5pt&quot;&gt;飞机编号&lt;/span&gt;&lt;span lang=&quot;EN-US&quot; style=&quot;font-size: 10.5pt ; font-family: &amp;#34;times new roman&amp;#34; , serif&quot;&gt;(airplaneID)&lt;/span&gt;&lt;/u&gt;&lt;/b&gt;" style="ellipse;whiteSpace=wrap;html=1;" vertex="1" parent="1">
          <mxGeometry x="280" y="80" width="100" height="60" as="geometry" />
        </mxCell>
        <mxCell id="MFbKQ4KdCUcgv2iNRWdX-43" value="&lt;span style=&quot;font-size: 10.5pt&quot;&gt;飞机机型&lt;/span&gt;&lt;span lang=&quot;EN-US&quot; style=&quot;font-size: 10.5pt ; font-family: &amp;#34;times new roman&amp;#34; , serif&quot;&gt;(airplaneType)&lt;/span&gt;" style="ellipse;whiteSpace=wrap;html=1;" vertex="1" parent="1">
          <mxGeometry x="390" y="80" width="100" height="60" as="geometry" />
        </mxCell>
        <mxCell id="MFbKQ4KdCUcgv2iNRWdX-44" value="&lt;span style=&quot;font-size: 10.5pt&quot;&gt;经济舱数量&lt;/span&gt;&lt;span lang=&quot;EN-US&quot; style=&quot;font-size: 10.5pt ; font-family: &amp;#34;times new roman&amp;#34; , serif&quot;&gt;(touristNum)&lt;/span&gt;" style="ellipse;whiteSpace=wrap;html=1;" vertex="1" parent="1">
          <mxGeometry x="510" y="80" width="100" height="60" as="geometry" />
        </mxCell>
        <mxCell id="MFbKQ4KdCUcgv2iNRWdX-45" value="&lt;span style=&quot;font-size: 10.5pt&quot;&gt;商务舱数量&lt;/span&gt;&lt;span lang=&quot;EN-US&quot; style=&quot;font-size: 10.5pt ; font-family: &amp;#34;times new roman&amp;#34; , serif&quot;&gt;(businessNum)&lt;/span&gt;" style="ellipse;whiteSpace=wrap;html=1;" vertex="1" parent="1">
          <mxGeometry x="630" y="80" width="100" height="60" as="geometry" />
        </mxCell>
        <mxCell id="MFbKQ4KdCUcgv2iNRWdX-46" value="&lt;i&gt;&lt;u&gt;&lt;span style=&quot;font-size: 10.5pt&quot;&gt;公司编号(cID)&lt;/span&gt;&lt;/u&gt;&lt;/i&gt;" style="ellipse;whiteSpace=wrap;html=1;" vertex="1" parent="1">
          <mxGeometry x="750" y="90" width="100" height="60" as="geometry" />
        </mxCell>
        <mxCell id="MFbKQ4KdCUcgv2iNRWdX-47" value="" style="endArrow=none;html=1;strokeColor=#000000;entryX=0.5;entryY=1;entryDx=0;entryDy=0;exitX=1;exitY=0;exitDx=0;exitDy=0;" edge="1" parent="1" source="MFbKQ4KdCUcgv2iNRWdX-18" target="MFbKQ4KdCUcgv2iNRWdX-42">
          <mxGeometry width="50" height="50" relative="1" as="geometry">
            <mxPoint x="400" y="330" as="sourcePoint" />
            <mxPoint x="450" y="280" as="targetPoint" />
          </mxGeometry>
        </mxCell>
        <mxCell id="MFbKQ4KdCUcgv2iNRWdX-48" value="" style="endArrow=none;html=1;strokeColor=#000000;entryX=0.5;entryY=1;entryDx=0;entryDy=0;exitX=0.25;exitY=0;exitDx=0;exitDy=0;" edge="1" parent="1" source="MFbKQ4KdCUcgv2iNRWdX-9" target="MFbKQ4KdCUcgv2iNRWdX-43">
          <mxGeometry width="50" height="50" relative="1" as="geometry">
            <mxPoint x="400" y="330" as="sourcePoint" />
            <mxPoint x="450" y="280" as="targetPoint" />
          </mxGeometry>
        </mxCell>
        <mxCell id="MFbKQ4KdCUcgv2iNRWdX-49" value="" style="endArrow=none;html=1;strokeColor=#000000;entryX=0.5;entryY=1;entryDx=0;entryDy=0;exitX=0.5;exitY=0;exitDx=0;exitDy=0;" edge="1" parent="1" source="MFbKQ4KdCUcgv2iNRWdX-9" target="MFbKQ4KdCUcgv2iNRWdX-44">
          <mxGeometry width="50" height="50" relative="1" as="geometry">
            <mxPoint x="400" y="330" as="sourcePoint" />
            <mxPoint x="450" y="280" as="targetPoint" />
          </mxGeometry>
        </mxCell>
        <mxCell id="MFbKQ4KdCUcgv2iNRWdX-50" value="" style="endArrow=none;html=1;strokeColor=#000000;entryX=0;entryY=0.5;entryDx=0;entryDy=0;exitX=0.75;exitY=0;exitDx=0;exitDy=0;" edge="1" parent="1" source="MFbKQ4KdCUcgv2iNRWdX-9" target="MFbKQ4KdCUcgv2iNRWdX-45">
          <mxGeometry width="50" height="50" relative="1" as="geometry">
            <mxPoint x="400" y="330" as="sourcePoint" />
            <mxPoint x="450" y="280" as="targetPoint" />
          </mxGeometry>
        </mxCell>
        <mxCell id="MFbKQ4KdCUcgv2iNRWdX-51" value="" style="endArrow=none;html=1;strokeColor=#000000;entryX=0;entryY=0.5;entryDx=0;entryDy=0;exitX=1;exitY=0;exitDx=0;exitDy=0;" edge="1" parent="1" source="MFbKQ4KdCUcgv2iNRWdX-9" target="MFbKQ4KdCUcgv2iNRWdX-46">
          <mxGeometry width="50" height="50" relative="1" as="geometry">
            <mxPoint x="400" y="330" as="sourcePoint" />
            <mxPoint x="450" y="280" as="targetPoint" />
          </mxGeometry>
        </mxCell>
        <mxCell id="MFbKQ4KdCUcgv2iNRWdX-52" value="&lt;b&gt;&lt;u&gt;&lt;span style=&quot;font-size: 10.5pt&quot;&gt;航线编号&lt;/span&gt;&lt;span lang=&quot;EN-US&quot; style=&quot;font-size: 10.5pt ; font-family: &amp;#34;times new roman&amp;#34; , serif&quot;&gt;(airlineID)&lt;/span&gt;&lt;/u&gt;&lt;/b&gt;" style="ellipse;whiteSpace=wrap;html=1;" vertex="1" parent="1">
          <mxGeometry x="280" y="640" width="100" height="60" as="geometry" />
        </mxCell>
        <mxCell id="MFbKQ4KdCUcgv2iNRWdX-53" value="&lt;span style=&quot;font-size: 10.5pt&quot;&gt;出发地&lt;/span&gt;&lt;span lang=&quot;EN-US&quot; style=&quot;font-size: 10.5pt ; font-family: &amp;#34;times new roman&amp;#34; , serif&quot;&gt;(startPlace)&lt;/span&gt;" style="ellipse;whiteSpace=wrap;html=1;" vertex="1" parent="1">
          <mxGeometry x="400" y="640" width="100" height="60" as="geometry" />
        </mxCell>
        <mxCell id="MFbKQ4KdCUcgv2iNRWdX-54" value="&lt;span style=&quot;font-size: 10.5pt&quot;&gt;目的地&lt;/span&gt;&lt;span lang=&quot;EN-US&quot; style=&quot;font-size: 10.5pt ; font-family: &amp;#34;times new roman&amp;#34; , serif&quot;&gt;(arrivePlace)&lt;/span&gt;" style="ellipse;whiteSpace=wrap;html=1;" vertex="1" parent="1">
          <mxGeometry x="520" y="640" width="100" height="60" as="geometry" />
        </mxCell>
        <mxCell id="MFbKQ4KdCUcgv2iNRWdX-55" value="&lt;span style=&quot;font-size: 10.5pt&quot;&gt;目的地&lt;/span&gt;&lt;span lang=&quot;EN-US&quot; style=&quot;font-size: 10.5pt ; font-family: &amp;#34;times new roman&amp;#34; , serif&quot;&gt;(arrivePlace)&lt;/span&gt;" style="ellipse;whiteSpace=wrap;html=1;" vertex="1" parent="1">
          <mxGeometry x="640" y="640" width="100" height="60" as="geometry" />
        </mxCell>
        <mxCell id="MFbKQ4KdCUcgv2iNRWdX-57" value="&lt;i&gt;&lt;u&gt;&lt;span style=&quot;font-size: 10.5pt&quot;&gt;飞机编号(airplaneID)&lt;/span&gt;&lt;/u&gt;&lt;/i&gt;" style="ellipse;whiteSpace=wrap;html=1;" vertex="1" parent="1">
          <mxGeometry x="760" y="640" width="100" height="60" as="geometry" />
        </mxCell>
        <mxCell id="MFbKQ4KdCUcgv2iNRWdX-58" value="" style="endArrow=none;html=1;strokeColor=#000000;exitX=0.5;exitY=0;exitDx=0;exitDy=0;entryX=0;entryY=1;entryDx=0;entryDy=0;" edge="1" parent="1" source="MFbKQ4KdCUcgv2iNRWdX-52" target="MFbKQ4KdCUcgv2iNRWdX-10">
          <mxGeometry width="50" height="50" relative="1" as="geometry">
            <mxPoint x="400" y="440" as="sourcePoint" />
            <mxPoint x="450" y="390" as="targetPoint" />
          </mxGeometry>
        </mxCell>
        <mxCell id="MFbKQ4KdCUcgv2iNRWdX-59" value="" style="endArrow=none;html=1;strokeColor=#000000;exitX=0.5;exitY=0;exitDx=0;exitDy=0;entryX=0.25;entryY=1;entryDx=0;entryDy=0;" edge="1" parent="1" source="MFbKQ4KdCUcgv2iNRWdX-53" target="MFbKQ4KdCUcgv2iNRWdX-10">
          <mxGeometry width="50" height="50" relative="1" as="geometry">
            <mxPoint x="400" y="440" as="sourcePoint" />
            <mxPoint x="450" y="390" as="targetPoint" />
          </mxGeometry>
        </mxCell>
        <mxCell id="MFbKQ4KdCUcgv2iNRWdX-60" value="" style="endArrow=none;html=1;strokeColor=#000000;exitX=0.5;exitY=0;exitDx=0;exitDy=0;entryX=0.5;entryY=1;entryDx=0;entryDy=0;" edge="1" parent="1" source="MFbKQ4KdCUcgv2iNRWdX-54" target="MFbKQ4KdCUcgv2iNRWdX-10">
          <mxGeometry width="50" height="50" relative="1" as="geometry">
            <mxPoint x="400" y="440" as="sourcePoint" />
            <mxPoint x="450" y="390" as="targetPoint" />
          </mxGeometry>
        </mxCell>
        <mxCell id="MFbKQ4KdCUcgv2iNRWdX-61" value="" style="endArrow=none;html=1;strokeColor=#000000;exitX=0.5;exitY=0;exitDx=0;exitDy=0;" edge="1" parent="1" source="MFbKQ4KdCUcgv2iNRWdX-55">
          <mxGeometry width="50" height="50" relative="1" as="geometry">
            <mxPoint x="400" y="440" as="sourcePoint" />
            <mxPoint x="580" y="530" as="targetPoint" />
          </mxGeometry>
        </mxCell>
        <mxCell id="MFbKQ4KdCUcgv2iNRWdX-62" value="" style="endArrow=none;html=1;strokeColor=#000000;exitX=0.5;exitY=0;exitDx=0;exitDy=0;entryX=1;entryY=1;entryDx=0;entryDy=0;" edge="1" parent="1" source="MFbKQ4KdCUcgv2iNRWdX-57" target="MFbKQ4KdCUcgv2iNRWdX-10">
          <mxGeometry width="50" height="50" relative="1" as="geometry">
            <mxPoint x="400" y="440" as="sourcePoint" />
            <mxPoint x="450" y="390" as="targetPoint" />
          </mxGeometry>
        </mxCell>
        <mxCell id="MFbKQ4KdCUcgv2iNRWdX-63" value="&lt;b&gt;&lt;u&gt;&lt;span style=&quot;font-size: 10.5pt&quot;&gt;航班编号&lt;/span&gt;&lt;span lang=&quot;EN-US&quot; style=&quot;font-size: 10.5pt ; font-family: &amp;#34;times new roman&amp;#34; , serif&quot;&gt;(airflightID)&lt;/span&gt;&lt;/u&gt;&lt;/b&gt;" style="ellipse;whiteSpace=wrap;html=1;" vertex="1" parent="1">
          <mxGeometry x="-90" y="330" width="100" height="60" as="geometry" />
        </mxCell>
        <mxCell id="MFbKQ4KdCUcgv2iNRWdX-64" value="&lt;i&gt;&lt;u&gt;&lt;span style=&quot;font-size: 10.5pt&quot;&gt;航线编号(airlineID)&lt;/span&gt;&lt;/u&gt;&lt;/i&gt;" style="ellipse;whiteSpace=wrap;html=1;" vertex="1" parent="1">
          <mxGeometry x="-90" y="400" width="100" height="60" as="geometry" />
        </mxCell>
        <mxCell id="MFbKQ4KdCUcgv2iNRWdX-65" value="&lt;span style=&quot;font-size: 10.5pt&quot;&gt;起飞日期&lt;/span&gt;&lt;span lang=&quot;EN-US&quot; style=&quot;font-size: 10.5pt ; font-family: &amp;#34;times new roman&amp;#34; , serif&quot;&gt;(startTime)&lt;/span&gt;" style="ellipse;whiteSpace=wrap;html=1;" vertex="1" parent="1">
          <mxGeometry x="-90" y="470" width="100" height="60" as="geometry" />
        </mxCell>
        <mxCell id="MFbKQ4KdCUcgv2iNRWdX-66" value="&lt;span style=&quot;font-size: 10.5pt&quot;&gt;到达日期&lt;/span&gt;&lt;span lang=&quot;EN-US&quot; style=&quot;font-size: 10.5pt ; font-family: &amp;#34;times new roman&amp;#34; , serif&quot;&gt;(arriveTime)&lt;/span&gt;" style="ellipse;whiteSpace=wrap;html=1;" vertex="1" parent="1">
          <mxGeometry x="-90" y="550" width="100" height="60" as="geometry" />
        </mxCell>
        <mxCell id="MFbKQ4KdCUcgv2iNRWdX-67" value="&lt;span style=&quot;font-size: 10.5pt&quot;&gt;经济舱票价&lt;/span&gt;&lt;span lang=&quot;EN-US&quot; style=&quot;font-size: 10.5pt ; font-family: &amp;#34;times new roman&amp;#34; , serif&quot;&gt;(touristPrice)&lt;/span&gt;" style="ellipse;whiteSpace=wrap;html=1;" vertex="1" parent="1">
          <mxGeometry x="-90" y="620" width="100" height="60" as="geometry" />
        </mxCell>
        <mxCell id="MFbKQ4KdCUcgv2iNRWdX-68" value="&lt;span style=&quot;font-size: 10.5pt&quot;&gt;商务舱票价&lt;/span&gt;&lt;span lang=&quot;EN-US&quot; style=&quot;font-size: 10.5pt ; font-family: &amp;#34;times new roman&amp;#34; , serif&quot;&gt;(bussinessPrice)&lt;/span&gt;" style="ellipse;whiteSpace=wrap;html=1;" vertex="1" parent="1">
          <mxGeometry x="-90" y="690" width="100" height="60" as="geometry" />
        </mxCell>
        <mxCell id="MFbKQ4KdCUcgv2iNRWdX-70" value="" style="endArrow=none;html=1;strokeColor=#000000;entryX=1;entryY=0.5;entryDx=0;entryDy=0;exitX=0.25;exitY=0;exitDx=0;exitDy=0;" edge="1" parent="1" source="MFbKQ4KdCUcgv2iNRWdX-11" target="MFbKQ4KdCUcgv2iNRWdX-63">
          <mxGeometry width="50" height="50" relative="1" as="geometry">
            <mxPoint x="-130" y="480" as="sourcePoint" />
            <mxPoint x="-80" y="430" as="targetPoint" />
          </mxGeometry>
        </mxCell>
        <mxCell id="MFbKQ4KdCUcgv2iNRWdX-71" value="" style="endArrow=none;html=1;strokeColor=#000000;entryX=1;entryY=0.5;entryDx=0;entryDy=0;exitX=0;exitY=0;exitDx=0;exitDy=0;" edge="1" parent="1" source="MFbKQ4KdCUcgv2iNRWdX-11" target="MFbKQ4KdCUcgv2iNRWdX-64">
          <mxGeometry width="50" height="50" relative="1" as="geometry">
            <mxPoint x="-130" y="480" as="sourcePoint" />
            <mxPoint x="-80" y="430" as="targetPoint" />
          </mxGeometry>
        </mxCell>
        <mxCell id="MFbKQ4KdCUcgv2iNRWdX-72" value="" style="endArrow=none;html=1;strokeColor=#000000;entryX=0;entryY=0.25;entryDx=0;entryDy=0;exitX=1;exitY=0.5;exitDx=0;exitDy=0;" edge="1" parent="1" source="MFbKQ4KdCUcgv2iNRWdX-65" target="MFbKQ4KdCUcgv2iNRWdX-11">
          <mxGeometry width="50" height="50" relative="1" as="geometry">
            <mxPoint x="-130" y="480" as="sourcePoint" />
            <mxPoint x="-80" y="430" as="targetPoint" />
          </mxGeometry>
        </mxCell>
        <mxCell id="MFbKQ4KdCUcgv2iNRWdX-73" value="" style="endArrow=none;html=1;strokeColor=#000000;exitX=1;exitY=0.5;exitDx=0;exitDy=0;entryX=0;entryY=0.5;entryDx=0;entryDy=0;" edge="1" parent="1" source="MFbKQ4KdCUcgv2iNRWdX-66" target="MFbKQ4KdCUcgv2iNRWdX-11">
          <mxGeometry width="50" height="50" relative="1" as="geometry">
            <mxPoint x="-130" y="480" as="sourcePoint" />
            <mxPoint x="-80" y="430" as="targetPoint" />
          </mxGeometry>
        </mxCell>
        <mxCell id="MFbKQ4KdCUcgv2iNRWdX-74" value="" style="endArrow=none;html=1;strokeColor=#000000;exitX=1;exitY=0.5;exitDx=0;exitDy=0;entryX=0;entryY=0.75;entryDx=0;entryDy=0;" edge="1" parent="1" source="MFbKQ4KdCUcgv2iNRWdX-67" target="MFbKQ4KdCUcgv2iNRWdX-11">
          <mxGeometry width="50" height="50" relative="1" as="geometry">
            <mxPoint x="-130" y="480" as="sourcePoint" />
            <mxPoint x="-80" y="430" as="targetPoint" />
          </mxGeometry>
        </mxCell>
        <mxCell id="MFbKQ4KdCUcgv2iNRWdX-75" value="" style="endArrow=none;html=1;strokeColor=#000000;exitX=1;exitY=0.5;exitDx=0;exitDy=0;entryX=0.25;entryY=1;entryDx=0;entryDy=0;" edge="1" parent="1" source="MFbKQ4KdCUcgv2iNRWdX-68" target="MFbKQ4KdCUcgv2iNRWdX-11">
          <mxGeometry width="50" height="50" relative="1" as="geometry">
            <mxPoint x="-130" y="480" as="sourcePoint" />
            <mxPoint x="-80" y="430" as="targetPoint" />
          </mxGeometry>
        </mxCell>
      </root>
    </mxGraphModel>
  </diagram>
</mxfile>
